<svg width="51" height="51" viewBox="0 0 51 51" fill="none" xmlns="http://www.w3.org/2000/svg">
<path d="M25.0961 50.6003C38.9563 50.6003 50.1922 39.273 50.1922 25.3001C50.1922 11.3273 38.9563 0 25.0961 0C11.2359 0 0 11.3273 0 25.3001C0 39.273 11.2359 50.6003 25.0961 50.6003Z" fill="#FCFBFC"/>
<path d="M22.0845 37.7305L20.2203 46.4772L30.4738 46.8384L28.5378 37.7305H22.0845Z" fill="#CACACA"/>
<path d="M21.0807 46.4047C19.5749 46.4047 17.8541 46.4772 17.8541 48.6458C17.8541 48.6458 32.9008 48.5371 32.9032 48.6458C32.8519 46.4047 30.8323 46.4047 29.47 46.4047H21.0807Z" fill="#DADADA"/>
<path d="M16.0403 48.5802H34.1371V48.9256C34.1371 48.9256 30.2298 50.5841 25.0887 50.5841C19.9476 50.5841 16.0403 48.9256 16.0403 48.9256V48.5802Z" fill="#DADADA"/>
<path d="M41.2294 26.8182C41.5736 25.2568 42.0421 14.2163 42.2333 8.89124L41.2294 7.15637H8.8195L8.31757 8.89124C8.48488 10.5779 8.8195 15.0645 8.8195 19.5173C8.8195 25.0833 8.96292 32.4565 15.5596 37.0828C22.1563 41.7093 27.3189 40.6971 33.342 38.1671C39.365 35.6371 40.7991 28.7699 41.2294 26.8182Z" fill="#DADADA"/>
<path d="M19.0014 36.3599C17.3522 34.0949 14.1255 27.4687 14.4123 19.0835H10.4687C10.2392 29.6662 16.0615 35.0105 19.0014 36.3599Z" fill="#FCFBFC" fill-opacity="0.32"/>
<path d="M43.452 2.53003H25.2395H8.38924C5.16259 2.53003 5.23431 4.2649 5.95132 6.86718C6.52494 8.94902 7.81561 9.22852 8.38924 9.10807H25.5263C27.0081 9.08398 31.3199 9.05023 36.712 9.10807C43.452 9.18034 43.8822 9.25265 44.5995 7.22862C45.9185 3.70106 44.3844 2.62641 43.452 2.53003Z" fill="#CACACA"/>
<path d="M46.403 23.6969C46.804 19.2875 42.81 17.6142 40.8688 17.3386L41.3795 14.0654C42.2469 14.1696 44.4523 14.6671 46.3376 15.823C48.6939 17.2679 51.795 22.2464 48.255 28.3433C45.4233 33.2209 29.7928 40.5754 27.5359 39.8615C27.7163 39.1804 28.2415 37.5736 28.8992 36.595C30.0649 37.0637 45.9016 29.2085 46.403 23.6969Z" fill="#DADADA"/>
<path d="M4.21058 23.6969C3.80951 19.2875 7.80353 17.6142 9.74495 17.3386L9.234 14.0654C8.36688 14.1696 6.16129 14.6671 4.27627 15.823C1.91994 17.2679 -1.18115 22.2464 2.35868 28.3433C5.19057 33.2209 20.8209 40.5754 23.0778 39.8615C22.8974 39.1804 22.3722 37.5736 21.7145 36.595C20.5488 37.0637 4.71187 29.2085 4.21058 23.6969Z" fill="#DADADA"/>
<path fill-rule="evenodd" clip-rule="evenodd" d="M50.1922 25.3001C50.1922 36.0597 43.5297 45.2507 34.1371 48.9086V48.9256C34.1371 48.9256 33.2805 49.2892 31.8417 49.6761C29.6953 50.2781 27.433 50.6003 25.0961 50.6003C22.8783 50.6003 20.7277 50.31 18.6795 49.7656C17.0344 49.3477 16.0403 48.9256 16.0403 48.9256V48.9032C6.65538 45.2411 0 36.0541 0 25.3001C0 18.7209 2.49112 12.7281 6.57435 8.22825C6.3312 7.89658 6.11284 7.4533 5.95133 6.86717C5.23433 4.26489 5.1626 2.53001 8.38925 2.53001H14.1439C17.4534 0.909135 21.1695 0 25.0961 0C29.0227 0 32.7388 0.909135 36.0484 2.53001H43.452C44.3844 2.62639 45.9185 3.70104 44.5995 7.22861C44.3893 7.82095 44.2043 8.23376 43.8781 8.51957C47.8067 12.9852 50.1922 18.8618 50.1922 25.3001Z" fill="#209AD6"/>
<path d="M21.6853 22.2521V24.187H20.8524C20.5579 24.187 20.2755 24.3035 20.0672 24.5109C19.859 24.7182 19.7419 24.9995 19.7419 25.2927V30.8212C19.7419 31.1144 19.859 31.3957 20.0672 31.603C20.2755 31.8104 20.5579 31.9269 20.8524 31.9269H29.7363C30.0308 31.9269 30.3133 31.8104 30.5215 31.603C30.7298 31.3957 30.8468 31.1144 30.8468 30.8212V25.2927C30.8468 24.9995 30.7298 24.7182 30.5215 24.5109C30.3133 24.3035 30.0308 24.187 29.7363 24.187H28.9034V22.2521C28.9034 21.299 28.5232 20.385 27.8464 19.7111C27.1695 19.0372 26.2516 18.6586 25.2944 18.6586C24.3372 18.6586 23.4192 19.0372 22.7423 19.7111C22.0655 20.385 21.6853 21.299 21.6853 22.2521ZM23.0734 24.187V22.2521C23.0734 21.6656 23.3074 21.1031 23.7239 20.6884C24.1404 20.2737 24.7053 20.0407 25.2944 20.0407C25.8834 20.0407 26.4483 20.2737 26.8648 20.6884C27.2813 21.1031 27.5153 21.6656 27.5153 22.2521V24.187H23.0734ZM24.1839 27.2277C24.1839 27.0361 24.2339 26.8479 24.329 26.6814C24.4241 26.5148 24.561 26.3758 24.7263 26.2778C24.8917 26.1798 25.0797 26.1263 25.272 26.1224C25.4644 26.1186 25.6544 26.1646 25.8236 26.2558C25.9927 26.3471 26.1351 26.4806 26.2368 26.6431C26.3386 26.8057 26.3962 26.9918 26.4039 27.1832C26.4117 27.3746 26.3694 27.5647 26.2812 27.735C26.193 27.9052 26.0619 28.0497 25.9007 28.1542L25.8962 28.157C25.8962 28.157 26.0045 28.8094 26.1267 29.5778V29.5784C26.1267 29.6882 26.0828 29.7935 26.0049 29.8712C25.9269 29.9488 25.8211 29.9925 25.7108 29.9925H24.8768C24.7665 29.9925 24.6607 29.9488 24.5827 29.8712C24.5048 29.7935 24.4609 29.6882 24.4609 29.5784V29.5778L24.6914 28.157C24.5355 28.0568 24.4073 27.9193 24.3184 27.7571C24.2296 27.5948 24.1829 27.413 24.1828 27.2282L24.1839 27.2277Z" fill="#FCFBFC"/>
<path d="M43.8255 50.6317C47.3589 50.6317 50.2233 47.744 50.2233 44.1818C50.2233 40.6196 47.3589 37.7319 43.8255 37.7319C40.292 37.7319 37.4276 40.6196 37.4276 44.1818C37.4276 47.744 40.292 50.6317 43.8255 50.6317Z" fill="#F8F5F9"/>
<path d="M43.825 49.5567C46.7696 49.5567 49.1566 47.1503 49.1566 44.1818C49.1566 41.2133 46.7696 38.8069 43.825 38.8069C40.8805 38.8069 38.4935 41.2133 38.4935 44.1818C38.4935 47.1503 40.8805 49.5567 43.825 49.5567Z" fill="#D1CED2"/>
<path d="M42.6689 43.0033V42.0339H44.3441V46.485H43.2673V43.0033H42.6689Z" fill="#FFFCFF"/>
</svg>
