<svg width="51" height="51" viewBox="0 0 51 51" fill="none" xmlns="http://www.w3.org/2000/svg">
<path d="M24.6978 49.3955C38.338 49.3955 49.3955 38.338 49.3955 24.6978C49.3955 11.0576 38.338 0 24.6978 0C11.0576 0 0 11.0576 0 24.6978C0 38.338 11.0576 49.3955 24.6978 49.3955Z" fill="#F3F3F3"/>
<path d="M21.734 36.8321L19.8993 45.3706L29.9901 45.7231L28.0848 36.8321H21.734Z" fill="#DA8000"/>
<path d="M20.7461 45.2997C19.2642 45.2997 17.5707 45.3706 17.5707 47.4875C17.5707 47.4875 32.3785 47.3814 32.381 47.4875C32.3304 45.2997 30.3429 45.2997 29.0022 45.2997H20.7461Z" fill="#FE9500"/>
<path d="M15.7857 47.4235H33.5952V47.7607C33.5952 47.7607 29.75 49.3797 24.6905 49.3797C19.631 49.3797 15.7857 47.7607 15.7857 47.7607V47.4235Z" fill="#FFB245"/>
<path d="M40.575 26.1797C40.9137 24.6554 41.3748 13.8778 41.563 8.67953L40.575 6.98596H8.67952L8.18555 8.67953C8.3502 10.326 8.67952 14.7057 8.67952 19.0526C8.67952 24.4861 8.82066 31.6837 15.3126 36.1999C21.8046 40.7158 26.8853 39.7281 32.8128 37.2584C38.7402 34.7886 40.1515 28.0849 40.575 26.1797Z" fill="#FE9500"/>
<path d="M18.6998 35.4942C17.0768 33.2831 13.9014 26.8147 14.1836 18.6292H10.3025C10.0767 28.9598 15.8066 34.177 18.6998 35.4942Z" fill="#FCFBFC" fill-opacity="0.32"/>
<path d="M42.7623 2.46979H24.8389H8.25609C5.08065 2.46979 5.15124 4.16335 5.85687 6.70367C6.42139 8.73594 7.69157 9.00879 8.25609 8.89121H25.1211C26.5795 8.86769 30.8228 8.83474 36.1293 8.89121C42.7623 8.96176 43.1857 9.03235 43.8916 7.05651C45.1896 3.61294 43.6799 2.56387 42.7623 2.46979Z" fill="#FFB245"/>
<path d="M45.6665 23.1327C46.0611 18.8284 42.1305 17.1949 40.2201 16.9258L40.7227 13.7306C41.5763 13.8323 43.7467 14.3179 45.6021 15.4463C47.921 16.8568 50.9729 21.7167 47.4891 27.6685C44.7023 32.43 29.3199 39.6094 27.0988 38.9125C27.2764 38.2476 27.7933 36.6791 28.4405 35.7237C29.5877 36.1812 45.1731 28.5131 45.6665 23.1327Z" fill="#FE9500"/>
<path d="M4.14374 23.1327C3.74904 18.8284 7.67966 17.1949 9.59026 16.9258L9.08743 13.7306C8.23407 13.8323 6.06349 14.3179 4.20839 15.4463C1.88946 16.8568 -1.16241 21.7167 2.32124 27.6685C5.10817 32.43 20.4904 39.6094 22.7115 38.9125C22.5339 38.2476 22.0171 36.6791 21.3698 35.7237C20.2227 36.1812 4.63707 28.5131 4.14374 23.1327Z" fill="#FE9500"/>
<path d="M22.9027 14.9762H26.883C27.5539 14.9762 28.1471 15.4062 28.3578 16.0437L28.6949 17.0578H31.1161C32.2603 17.0578 33.1905 17.9913 33.1905 19.1395V27.466C33.1905 28.6141 32.2603 29.5476 31.1161 29.5476H18.6697C17.5239 29.5476 16.5952 28.6141 16.5952 27.466V19.1395C16.5952 17.9913 17.5239 17.0578 18.6697 17.0578H21.0909L21.4279 16.0437C21.6387 15.4062 22.2318 14.9762 22.9027 14.9762ZM24.8929 26.4252C26.6107 26.4252 28.0045 25.0266 28.0045 23.3027C28.0045 21.5496 26.6107 20.1803 24.8929 20.1803C23.1458 20.1803 21.7813 21.5496 21.7813 23.3027C21.7813 25.0266 23.1458 26.4252 24.8929 26.4252Z" fill="#FCFBFC"/>
<path d="M43.1298 49.4261C46.6072 49.4261 49.4261 46.6072 49.4261 43.1298C49.4261 39.6525 46.6072 36.8335 43.1298 36.8335C39.6525 36.8335 36.8335 39.6525 36.8335 43.1298C36.8335 46.6072 39.6525 49.4261 43.1298 49.4261Z" fill="#F8F5F9"/>
<path d="M43.1298 48.3767C46.0276 48.3767 48.3767 46.0276 48.3767 43.1298C48.3767 40.232 46.0276 37.8829 43.1298 37.8829C40.232 37.8829 37.8829 40.232 37.8829 43.1298C37.8829 46.0276 40.232 48.3767 43.1298 48.3767Z" fill="#D1CED2"/>
<path d="M41.9916 41.9795V41.0331H43.6402V45.3783H42.5805V41.9795H41.9916Z" fill="#FFFCFF"/>
</svg>
