<svg width="51" height="51" viewBox="0 0 51 51" fill="none" xmlns="http://www.w3.org/2000/svg">
<path d="M24.8953 50.6003C38.6447 50.6003 49.7907 39.273 49.7907 25.3001C49.7907 11.3273 38.6447 0 24.8953 0C11.146 0 0 11.3273 0 25.3001C0 39.273 11.146 50.6003 24.8953 50.6003Z" fill="#F3F3F3"/>
<path d="M21.9078 37.7304L20.0585 46.4772L30.23 46.8383L28.3095 37.7304H21.9078Z" fill="#CACACA"/>
<path d="M20.9121 46.4046C19.4184 46.4046 17.7112 46.4772 17.7112 48.6457C17.7112 48.6457 32.6376 48.5371 32.64 48.6457C32.5891 46.4046 30.5857 46.4046 29.2342 46.4046H20.9121Z" fill="#B3B3B3"/>
<path d="M15.912 48.5802H33.864V48.9256C33.864 48.9256 29.988 50.5841 24.888 50.5841C19.788 50.5841 15.912 48.9256 15.912 48.9256V48.5802Z" fill="#DADADA"/>
<path d="M40.8996 26.8181C41.241 25.2568 41.7058 14.2162 41.8955 8.89118L40.8996 7.15631H8.74895L8.25102 8.89118C8.417 10.5778 8.74895 15.0644 8.74895 19.5172C8.74895 25.0833 8.89121 32.4564 15.4351 37.0827C21.979 41.7089 27.1004 40.6971 33.0753 38.167C39.0501 35.637 40.4727 28.7699 40.8996 26.8181Z" fill="#B3B3B3"/>
<path d="M18.8494 36.3599C17.2134 34.095 14.0126 27.4687 14.2971 19.0836H10.3849C10.1573 29.6662 15.9331 35.0106 18.8494 36.3599Z" fill="#FCFBFC" fill-opacity="0.32"/>
<path d="M43.1044 2.53003H25.0376H8.32214C5.1213 2.53003 5.19246 4.26491 5.90372 6.86719C6.47276 8.94903 7.75311 9.22853 8.32214 9.10808H25.3221C26.7921 9.08395 31.0694 9.05024 36.4183 9.10808C43.1044 9.18035 43.5312 9.25263 44.2427 7.22863C45.5512 3.70106 44.0293 2.62641 43.1044 2.53003Z" fill="#CACACA"/>
<path d="M46.0318 23.6969C46.4296 19.2876 42.4675 17.6143 40.5418 17.3386L41.0485 14.0655C41.9089 14.1697 44.0966 14.6671 45.9669 15.823C48.3043 17.268 51.3807 22.2464 47.869 28.3434C45.0599 33.221 29.5545 40.5755 27.3156 39.8616C27.4946 39.1805 28.0156 37.5737 28.668 36.5951C29.8244 37.0637 45.5344 29.2086 46.0318 23.6969Z" fill="#B3B3B3"/>
<path d="M4.1769 23.6969C3.77903 19.2876 7.74111 17.6143 9.66699 17.3386L9.16013 14.0655C8.29994 14.1697 6.112 14.6671 4.24206 15.823C1.90458 17.268 -1.1717 22.2464 2.33981 28.3434C5.14904 33.221 20.6543 40.5755 22.8932 39.8616C22.7142 39.1805 22.1932 37.5737 21.5408 36.5951C20.3845 37.0637 4.67417 29.2086 4.1769 23.6969Z" fill="#B3B3B3"/>
<path d="M43.0668 50.6316C46.572 50.6316 49.4135 47.7439 49.4135 44.1818C49.4135 40.6196 46.572 37.7319 43.0668 37.7319C39.5617 37.7319 36.7202 40.6196 36.7202 44.1818C36.7202 47.7439 39.5617 50.6316 43.0668 50.6316Z" fill="#F8F5F9"/>
<path d="M43.0668 49.5567C45.9878 49.5567 48.3557 47.1503 48.3557 44.1818C48.3557 41.2133 45.9878 38.8069 43.0668 38.8069C40.1459 38.8069 37.7779 41.2133 37.7779 44.1818C37.7779 47.1503 40.1459 49.5567 43.0668 49.5567Z" fill="#D1CED2"/>
<path d="M41.5642 45.2349C41.7 45.1255 41.7621 45.0745 41.7502 45.0828C42.1419 44.7536 42.4499 44.4832 42.6739 44.2718C42.902 44.0603 43.0942 43.8389 43.25 43.6071C43.4063 43.3753 43.4842 43.1498 43.4842 42.93C43.4842 42.7633 43.4463 42.6335 43.37 42.5398C43.2941 42.4465 43.1803 42.3997 43.0281 42.3997C42.8763 42.3997 42.7559 42.4586 42.6682 42.5763C42.5842 42.6903 42.5422 42.8529 42.5422 43.0643H41.5519C41.5601 42.7189 41.6319 42.4299 41.7682 42.1986C41.9081 41.9668 42.0901 41.796 42.3141 41.6861C42.5422 41.5766 42.7943 41.5215 43.0701 41.5215C43.5462 41.5215 43.9041 41.6455 44.144 41.8934C44.3884 42.1414 44.5103 42.4648 44.5103 42.8632C44.5103 43.2982 44.3643 43.7025 44.0722 44.0765C43.78 44.4463 43.4083 44.8083 42.9563 45.162H44.576V46.0095H41.5642V45.2349Z" fill="#FFFCFF"/>
<path d="M20.4772 14.0975C19.8009 14.0975 19.1523 14.3706 18.6741 14.8566C18.1959 15.3426 17.9272 16.0017 17.9272 16.689V19.3841C17.9272 19.5216 17.9809 19.6534 18.0766 19.7506C18.1722 19.8478 18.3019 19.9024 18.4372 19.9024C18.5724 19.9024 18.7022 19.8478 18.7978 19.7506C18.8935 19.6534 18.9472 19.5216 18.9472 19.3841V16.689C18.9472 16.2766 19.1084 15.8811 19.3953 15.5895C19.6822 15.2979 20.0714 15.1341 20.4772 15.1341H23.1292C23.2644 15.1341 23.3942 15.0795 23.4898 14.9823C23.5855 14.8851 23.6392 14.7533 23.6392 14.6158C23.6392 14.4784 23.5855 14.3465 23.4898 14.2493C23.3942 14.1521 23.2644 14.0975 23.1292 14.0975H20.4772ZM30.0652 14.0975C30.7415 14.0975 31.3901 14.3706 31.8683 14.8566C32.3465 15.3426 32.6152 16.0017 32.6152 16.689V19.3841C32.6152 19.5216 32.5614 19.6534 32.4658 19.7506C32.3702 19.8478 32.2404 19.9024 32.1052 19.9024C31.9699 19.9024 31.8402 19.8478 31.7446 19.7506C31.6489 19.6534 31.5952 19.5216 31.5952 19.3841V16.689C31.5952 16.2766 31.434 15.8811 31.1471 15.5895C30.8601 15.2979 30.471 15.1341 30.0652 15.1341H27.4132C27.2779 15.1341 27.1482 15.0795 27.0526 14.9823C26.9569 14.8851 26.9032 14.7533 26.9032 14.6158C26.9032 14.4784 26.9569 14.3465 27.0526 14.2493C27.1482 14.1521 27.2779 14.0975 27.4132 14.0975H30.0652ZM17.9272 26.4329C17.9272 27.1202 18.1959 27.7793 18.6741 28.2653C19.1523 28.7513 19.8009 29.0244 20.4772 29.0244H23.1292C23.2644 29.0244 23.3942 28.9698 23.4898 28.8726C23.5855 28.7754 23.6392 28.6435 23.6392 28.5061C23.6392 28.3686 23.5855 28.2368 23.4898 28.1396C23.3942 28.0424 23.2644 27.9878 23.1292 27.9878H20.4772C20.0714 27.9878 19.6822 27.824 19.3953 27.5323C19.1084 27.2408 18.9472 26.8453 18.9472 26.4329V23.7378C18.9472 23.6003 18.8935 23.4685 18.7978 23.3713C18.7022 23.2741 18.5724 23.2195 18.4372 23.2195C18.3019 23.2195 18.1722 23.2741 18.0766 23.3713C17.9809 23.4685 17.9272 23.6003 17.9272 23.7378V26.4329ZM30.0652 29.0244C30.7415 29.0244 31.3901 28.7513 31.8683 28.2653C32.3465 27.7793 32.6152 27.1202 32.6152 26.4329V23.7378C32.6152 23.6003 32.5614 23.4685 32.4658 23.3713C32.3702 23.2741 32.2404 23.2195 32.1052 23.2195C31.9699 23.2195 31.8402 23.2741 31.7446 23.3713C31.6489 23.4685 31.5952 23.6003 31.5952 23.7378V26.4329C31.5952 26.8453 31.434 27.2408 31.1471 27.5323C30.8601 27.824 30.471 27.9878 30.0652 27.9878H27.4132C27.2779 27.9878 27.1482 28.0424 27.0526 28.1396C26.9569 28.2368 26.9032 28.3686 26.9032 28.5061C26.9032 28.6435 26.9569 28.7754 27.0526 28.8726C27.1482 28.9698 27.2779 29.0244 27.4132 29.0244H30.0652ZM25.7983 16.4817C25.4328 16.4817 25.1716 16.6849 25.0068 16.8996C24.8497 17.1045 24.7489 17.3553 24.6792 17.5738C24.6137 17.7885 24.5592 18.0065 24.516 18.2269L24.4882 18.3625C24.467 18.4661 24.4507 18.5466 24.4352 18.6092L23.3026 20.3987C23.0846 20.7425 22.7641 21.0062 22.3878 21.1513L21.8758 21.3491C21.6072 21.4523 21.3832 21.6487 21.2434 21.9036C21.1035 22.1584 21.0569 22.4554 21.1116 22.7418L21.3911 24.1964C21.4435 24.4676 21.5714 24.7178 21.7594 24.9175C21.9475 25.1172 22.188 25.2579 22.4523 25.3229L25.8118 26.1543C27.1113 26.4756 28.4291 25.6812 28.7616 24.3655L29.4022 21.828C29.6245 20.9477 29.128 20.0815 28.2524 19.856C28.1599 19.8349 28.0659 19.8204 27.9713 19.8129C27.8875 19.8046 27.8034 19.7999 27.7192 19.7988H27.1757C27.2663 19.4326 27.3267 19.0744 27.3267 18.746C27.3267 18.1945 27.2206 17.6617 26.9893 17.2475C26.7526 16.8238 26.352 16.4817 25.7983 16.4817Z" fill="white"/>
</svg>
