<svg width="41" height="41" viewBox="0 0 41 41" fill="none" xmlns="http://www.w3.org/2000/svg">
<path d="M20.5 0.916687C17.9282 0.916687 15.3817 1.42322 13.0057 2.40738C10.6298 3.39153 8.47093 4.83403 6.65245 6.65251C2.97986 10.3251 0.916626 15.3062 0.916626 20.5C0.916626 25.6938 2.97986 30.6749 6.65245 34.3475C8.47093 36.166 10.6298 37.6085 13.0057 38.5927C15.3817 39.5768 17.9282 40.0834 20.5 40.0834C25.6938 40.0834 30.6749 38.0201 34.3475 34.3475C38.0201 30.6749 40.0833 25.6938 40.0833 20.5C40.0833 17.9283 39.5768 15.3818 38.5926 13.0058C37.6084 10.6298 36.1659 8.47099 34.3475 6.65251C32.529 4.83403 30.3701 3.39153 27.9942 2.40738C25.6182 1.42322 23.0717 0.916687 20.5 0.916687ZM20.5 13.4304C23.6598 15.4833 27.346 16.5783 31.1141 16.5834C32.6416 16.5834 34.1104 16.4071 35.5204 16.0742C35.9316 17.4646 36.1666 18.9529 36.1666 20.5C36.1666 29.1363 29.1362 36.1667 20.5 36.1667C14.625 36.1667 9.51371 32.9159 6.79163 28.1179L10.2187 24.4167V22.4584C10.2187 21.8091 10.4766 21.1865 10.9357 20.7274C11.3948 20.2683 12.0174 20.0104 12.6666 20.0104C13.3159 20.0104 13.9385 20.2683 14.3976 20.7274C14.8566 21.1865 15.1145 21.8091 15.1145 22.4584V24.4167H20.5V13.4304ZM28.3333 20.0104C27.6841 20.0104 27.0614 20.2683 26.6024 20.7274C26.1433 21.1865 25.8854 21.8091 25.8854 22.4584C25.8854 23.1076 26.1433 23.7302 26.6024 24.1893C27.0614 24.6484 27.6841 24.9063 28.3333 24.9063C28.9825 24.9063 29.6052 24.6484 30.0642 24.1893C30.5233 23.7302 30.7812 23.1076 30.7812 22.4584C30.7812 21.8091 30.5233 21.1865 30.0642 20.7274C29.6052 20.2683 28.9825 20.0104 28.3333 20.0104Z" fill="#A7D9ED"/>
</svg>
