<svg width="60" height="60" viewBox="0 0 60 60" fill="none" xmlns="http://www.w3.org/2000/svg">
<circle cx="30" cy="30" r="30" fill="white"/>
<path fill-rule="evenodd" clip-rule="evenodd" d="M30 60C46.5685 60 60 46.5685 60 30C60 13.4315 46.5685 0 30 0C13.4315 0 0 13.4315 0 30C0 46.5685 13.4315 60 30 60ZM46.2461 40.7599V21.9576H46.245C46.2468 21.7885 46.1814 21.6256 46.0631 21.5047C45.9448 21.3839 45.7834 21.315 45.6144 21.3131H36.0955C36.0406 21.3127 35.9868 21.2984 35.939 21.2715C35.8912 21.2447 35.8509 21.2061 35.8221 21.1595L33.8042 18.1536C33.7754 18.1067 33.7352 18.068 33.6872 18.0411C33.6393 18.0143 33.5853 18.0001 33.5303 18H26.7143C26.6593 17.9999 26.6053 18.014 26.5574 18.0409C26.5095 18.0678 26.4694 18.1066 26.4409 18.1536L24.424 21.1595C24.3947 21.2061 24.3541 21.2447 24.3059 21.2715C24.2578 21.2984 24.2037 21.3127 24.1486 21.3131H19.7749C19.6873 21.3118 19.6038 21.276 19.5425 21.2133C19.4813 21.1507 19.4474 21.0664 19.4483 20.9788V20.0062C19.4494 19.9187 19.4157 19.8343 19.3546 19.7717C19.2936 19.709 19.2102 19.6731 19.1227 19.6719H16.0195C15.976 19.6723 15.9331 19.6813 15.8931 19.6983C15.8531 19.7153 15.8168 19.74 15.7864 19.7711C15.756 19.8021 15.7319 19.8389 15.7157 19.8792C15.6995 19.9196 15.6914 19.9627 15.6919 20.0062V20.9788C15.6928 21.0664 15.659 21.1508 15.5978 21.2135C15.5365 21.2762 15.4529 21.312 15.3653 21.3131H14.6292C14.4604 21.3154 14.2993 21.3845 14.1814 21.5053C14.0635 21.6261 13.9983 21.7887 14 21.9576V40.7604C13.9983 40.9292 14.0635 41.0918 14.1814 41.2126C14.2993 41.3335 14.4604 41.4026 14.6292 41.4049H45.6169C45.7858 41.4026 45.9469 41.3334 46.0648 41.2125C46.1828 41.0916 46.248 40.9288 46.2461 40.7599ZM34.5566 27.8816C34.6243 27.9173 34.6997 27.936 34.7762 27.936L34.7767 27.9375C34.8749 27.9374 34.9706 27.9062 35.0501 27.8485C35.1535 27.7724 35.2233 27.6591 35.2446 27.5325C35.2659 27.4059 35.2371 27.2759 35.1642 27.1702C34.5835 26.3606 33.8182 25.701 32.9319 25.246C32.0455 24.791 31.0635 24.5537 30.0672 24.5537C29.0708 24.5537 28.0888 24.791 27.2025 25.246C26.3161 25.701 25.5509 26.3606 24.9701 27.1702C24.8973 27.2759 24.8684 27.4059 24.8898 27.5325C24.9111 27.6591 24.9808 27.7724 25.0843 27.8485C25.1351 27.8853 25.1928 27.9115 25.254 27.9256C25.3152 27.9396 25.3785 27.9413 25.4403 27.9303C25.5021 27.9194 25.5611 27.8961 25.6137 27.8619C25.6664 27.8277 25.7116 27.7833 25.7467 27.7313C26.2413 27.0484 26.8908 26.4926 27.6418 26.1093C28.3928 25.7259 29.224 25.5261 30.0672 25.5261C30.9103 25.5261 31.7415 25.7259 32.4925 26.1093C33.2435 26.4926 33.893 27.0484 34.3877 27.7313C34.4309 27.7944 34.4889 27.846 34.5566 27.8816ZM40.9425 33.3515C40.9373 33.2228 40.8823 33.1012 40.7891 33.0123L39.0753 31.3952C39.067 31.3873 39.0604 31.3778 39.0559 31.3673C39.0513 31.3568 39.049 31.3454 39.049 31.334C39.049 31.3226 39.0513 31.3112 39.0559 31.3007C39.0604 31.2902 39.067 31.2807 39.0753 31.2728L40.7891 29.6578C40.8823 29.5689 40.9373 29.4473 40.9425 29.3186C40.9476 29.1899 40.9026 29.0643 40.8167 28.9682C40.775 28.9212 40.7242 28.8831 40.6674 28.8561C40.6106 28.8292 40.549 28.8139 40.4862 28.8113C40.4233 28.8087 40.3606 28.8187 40.3018 28.8409C40.2429 28.863 40.1891 28.8967 40.1436 28.9401L38.1221 30.8444C38.1147 30.8507 38.1057 30.8548 38.0961 30.8561C38.0865 30.8575 38.0767 30.8562 38.0678 30.8522C38.059 30.8482 38.0515 30.8418 38.0461 30.8337C38.0407 30.8256 38.0378 30.8162 38.0376 30.8065V29.3005C38.0384 29.2352 38.026 29.1705 38.001 29.1102C37.9761 29.0499 37.9392 28.9953 37.8925 28.9497C37.8458 28.9041 37.7904 28.8684 37.7296 28.8448C37.6687 28.8213 37.6037 28.8103 37.5385 28.8126C37.4131 28.8223 37.2961 28.8796 37.2115 28.9728C37.127 29.066 37.0813 29.188 37.0839 29.3138V33.3578C37.0813 33.4836 37.127 33.6055 37.2116 33.6986C37.2961 33.7917 37.4131 33.8489 37.5385 33.8585C37.6037 33.8608 37.6687 33.8499 37.7295 33.8264C37.7903 33.8029 37.8458 33.7673 37.8925 33.7217C37.9391 33.6762 37.9761 33.6216 38.001 33.5613C38.026 33.5011 38.0384 33.4364 38.0376 33.3711V32.2895C38.0376 32.2862 38.0378 32.283 38.0381 32.2798C38.0384 32.2774 38.0388 32.275 38.0392 32.2727C38.0404 32.2669 38.0422 32.2612 38.0445 32.2558C38.0491 32.2451 38.0558 32.2355 38.0642 32.2275L38.2362 32.0658C38.2552 32.0479 38.2803 32.038 38.3064 32.038C38.3324 32.038 38.3575 32.0479 38.3765 32.0658L40.1436 33.7305C40.1892 33.7737 40.243 33.8074 40.3019 33.8294C40.3607 33.8515 40.4235 33.8615 40.4862 33.8588C40.549 33.8561 40.6107 33.8408 40.6674 33.8139C40.7242 33.7869 40.775 33.7488 40.8167 33.7018C40.9026 33.6058 40.9476 33.4801 40.9425 33.3515ZM29.6032 33.6983C29.6875 33.7915 29.8042 33.8489 29.9295 33.8588C29.9948 33.8612 30.0599 33.8499 30.1209 33.8264C30.1818 33.8029 30.2374 33.7672 30.2842 33.7216C30.3309 33.676 30.368 33.6213 30.393 33.561C30.418 33.5006 30.4305 33.4358 30.4296 33.3704V29.3003C30.4305 29.2349 30.418 29.1701 30.393 29.1098C30.368 29.0494 30.3309 28.9947 30.2842 28.9491C30.2374 28.9035 30.1818 28.8678 30.1209 28.8443C30.0599 28.8209 29.9948 28.81 29.9295 28.8124C29.8042 28.8223 29.6875 28.8797 29.6032 28.9729C29.5189 29.0661 29.4733 29.1879 29.476 29.3136V33.3577C29.4733 33.4833 29.5189 33.6052 29.6032 33.6983ZM27.5978 33.8593H24.965C24.8371 33.8578 24.715 33.8056 24.6255 33.7141C24.536 33.6226 24.4865 33.4994 24.4879 33.3714V29.3151C24.4853 29.1895 24.5308 29.0676 24.6151 28.9744C24.6995 28.8813 24.8162 28.8238 24.9415 28.8139C25.0067 28.8114 25.0718 28.8222 25.1328 28.8457C25.1938 28.8691 25.2493 28.9047 25.2961 28.9503C25.3429 28.9959 25.3799 29.0505 25.4049 29.1108C25.4299 29.1712 25.4424 29.236 25.4416 29.3013V32.8846H27.5844C27.71 32.8847 27.8307 32.9329 27.9218 33.0192C28.013 33.1056 28.0675 33.2236 28.0743 33.3489C28.0782 33.4142 28.0688 33.4796 28.0467 33.5411C28.0246 33.6026 27.9902 33.659 27.9456 33.7069C27.9011 33.7548 27.8473 33.7931 27.7875 33.8195C27.7277 33.846 27.6631 33.86 27.5978 33.8608V33.8593ZM22.426 33.6382C22.921 33.4113 23.3079 33.0003 23.5046 32.4925V32.4905C23.5476 32.3798 23.5455 32.2566 23.4988 32.1475C23.4521 32.0383 23.3645 31.9517 23.2547 31.9064C23.2005 31.885 23.1425 31.8747 23.0842 31.876C23.0259 31.8773 22.9685 31.8903 22.9152 31.9141C22.862 31.938 22.8141 31.9722 22.7743 32.0148C22.7345 32.0575 22.7036 32.1076 22.6835 32.1623C22.5499 32.4559 22.3173 32.6931 22.0264 32.8324C21.7355 32.9716 21.4049 33.0041 21.0925 32.9241C20.7553 32.8167 20.4611 32.6049 20.2523 32.3193C20.0435 32.0337 19.931 31.6891 19.931 31.3353C19.931 30.9816 20.0435 30.637 20.2523 30.3514C20.4611 30.0658 20.7553 29.854 21.0925 29.7467C21.4049 29.6666 21.7356 29.6992 22.0265 29.8385C22.3174 29.9779 22.55 30.2152 22.6835 30.5089C22.7036 30.5636 22.7345 30.6138 22.7743 30.6564C22.8141 30.699 22.862 30.7332 22.9152 30.7571C22.9685 30.7809 23.0259 30.7939 23.0842 30.7952C23.1425 30.7966 23.2005 30.7862 23.2547 30.7648C23.3645 30.7195 23.4521 30.6329 23.4988 30.5237C23.5455 30.4146 23.5476 30.2914 23.5046 30.1807C23.3068 29.6753 22.9199 29.2668 22.426 29.0417C21.9547 28.8243 21.426 28.7642 20.9179 28.8703C20.3894 28.9749 19.9159 29.2655 19.5834 29.6893C19.2758 30.0985 19.0947 30.5888 19.0622 31.0996L19.0602 31.1185C19.0564 31.14 19.0542 31.1619 19.0536 31.1838V31.201C19.0509 31.2466 19.0499 31.2929 19.0505 31.3397C19.0509 31.3795 19.0521 31.4189 19.054 31.458V31.4899C19.0546 31.5102 19.0565 31.5304 19.0597 31.5504L19.0622 31.5813C19.0947 32.0919 19.2758 32.5818 19.5834 32.9906C19.9157 33.4147 20.3893 33.7054 20.9179 33.8096C21.426 33.9154 21.9546 33.8553 22.426 33.6382ZM30.0672 38.1244C29.0692 38.1337 28.0839 37.9005 27.1961 37.4447C26.3082 36.989 25.5443 36.3244 24.9701 35.5081C24.8973 35.4024 24.8684 35.2724 24.8898 35.1458C24.9111 35.0192 24.9808 34.9059 25.0843 34.8298C25.1351 34.793 25.1928 34.7668 25.2539 34.7528C25.3151 34.7387 25.3784 34.7371 25.4402 34.748C25.502 34.7588 25.5609 34.782 25.6136 34.8161C25.6662 34.8502 25.7115 34.8946 25.7467 34.9465C26.2414 35.6293 26.8909 36.185 27.6419 36.5682C28.3929 36.9515 29.224 37.1513 30.0672 37.1513C30.9103 37.1513 31.7414 36.9515 32.4924 36.5682C33.2434 36.185 33.8929 35.6293 34.3877 34.9465C34.4228 34.8946 34.4681 34.8502 34.5207 34.816C34.5733 34.7819 34.6323 34.7586 34.6941 34.7477C34.7559 34.7368 34.8193 34.7385 34.8804 34.7526C34.9416 34.7667 34.9993 34.793 35.0501 34.8298C35.1535 34.9058 35.2232 35.019 35.2446 35.1456C35.2659 35.2721 35.237 35.4019 35.1642 35.5076C34.5901 36.324 33.8263 36.9887 32.9384 37.4445C32.0505 37.9004 31.0652 38.1337 30.0672 38.1244ZM36.0048 32.4924C35.8081 33 35.4212 33.411 34.9263 33.638C34.4549 33.8551 33.9263 33.9152 33.4182 33.8095C32.8895 33.7052 32.4159 33.4146 32.0836 32.9904C31.7753 32.5811 31.5941 32.0901 31.5625 31.5786C31.5557 31.4998 31.5518 31.4201 31.5507 31.3395C31.5507 31.2592 31.5553 31.1798 31.562 31.1015C31.5937 30.5895 31.7751 30.098 32.0836 29.6881C32.4162 29.2643 32.8897 28.9737 33.4182 28.8691C33.9263 28.763 34.455 28.8232 34.9263 29.0406C35.4203 29.266 35.8071 29.6748 36.0048 30.1806C36.0478 30.2913 36.0458 30.4144 35.9991 30.5236C35.9524 30.6328 35.8648 30.7193 35.755 30.7647C35.7008 30.7861 35.6428 30.7964 35.5845 30.7951C35.5262 30.7937 35.4687 30.7808 35.4155 30.7569C35.3623 30.7331 35.3144 30.6988 35.2746 30.6562C35.2348 30.6136 35.2039 30.5634 35.1837 30.5087C35.0502 30.2151 34.8176 29.9779 34.5267 29.8385C34.2359 29.6992 33.9052 29.6666 33.5927 29.7465C33.2556 29.8538 32.9614 30.0656 32.7526 30.3512C32.5438 30.6368 32.4313 30.9814 32.4313 31.3352C32.4313 31.689 32.5438 32.0336 32.7526 32.3192C32.9614 32.6048 33.2556 32.8166 33.5927 32.9239C33.9052 33.0038 34.2357 32.9713 34.5266 32.8321C34.8175 32.6928 35.0501 32.4557 35.1837 32.1622C35.2039 32.1074 35.2348 32.0573 35.2746 32.0147C35.3144 31.972 35.3623 31.9378 35.4155 31.914C35.4687 31.8901 35.5262 31.8772 35.5845 31.8758C35.6428 31.8745 35.7008 31.8848 35.755 31.9062C35.8648 31.9516 35.9524 32.0381 35.9991 32.1473C36.0458 32.2565 36.0478 32.3796 36.0048 32.4903V32.4924ZM31.5605 31.5764C31.5541 31.548 31.5505 31.519 31.5497 31.4899V31.3363C31.5497 31.4172 31.5543 31.4971 31.5615 31.5759L31.5605 31.5764ZM31.5584 31.0991C31.5522 31.1774 31.5481 31.2567 31.5471 31.3371V31.1835C31.5477 31.1548 31.5511 31.1261 31.5574 31.0981L31.5584 31.0991ZM22.6888 26.2075C22.8727 25.9646 22.9826 25.6739 23.0055 25.3702C23.0186 25.1463 22.9847 24.9222 22.9061 24.7123C22.8274 24.5023 22.7058 24.3111 22.5489 24.1509C22.392 23.9907 22.2033 23.8651 21.995 23.7821C21.7867 23.6992 21.5633 23.6607 21.3393 23.6691C21.0351 23.6857 20.7422 23.7897 20.4956 23.9685C20.249 24.1473 20.0592 24.3934 19.9489 24.6773C19.8385 24.9612 19.8124 25.2709 19.8736 25.5693C19.9348 25.8677 20.0807 26.1422 20.2938 26.3598C20.507 26.5774 20.7783 26.7289 21.0754 26.7963C21.3725 26.8636 21.6827 26.8439 21.9688 26.7395C22.255 26.635 22.5049 26.4503 22.6888 26.2075ZM21.1241 25.8148H20.9782V24.665H21.1241V25.1396C21.1494 25.1035 21.1834 25.0744 21.223 25.055C21.2625 25.0356 21.3064 25.0264 21.3504 25.0285C21.3886 25.0279 21.4265 25.0356 21.4616 25.051C21.4966 25.0665 21.5278 25.0893 21.5532 25.1179C21.5786 25.1466 21.5975 25.1803 21.6086 25.2169C21.6197 25.2535 21.6228 25.2921 21.6176 25.33V25.8148H21.4717V25.3541C21.4717 25.2476 21.4282 25.1616 21.2982 25.1616C21.1866 25.1616 21.1272 25.2507 21.1246 25.3633L21.1241 25.8148ZM20.6235 25.0514H20.7847V25.186H20.6235V25.5833C20.6235 25.6529 20.6511 25.6856 20.7259 25.6856C20.7452 25.6853 20.7644 25.683 20.7832 25.679V25.8059C20.7511 25.8159 20.7176 25.8208 20.6839 25.8203C20.6553 25.8222 20.6266 25.8178 20.5998 25.8074C20.5731 25.797 20.549 25.7808 20.5291 25.7601C20.5093 25.7393 20.4943 25.7145 20.4851 25.6873C20.4759 25.6601 20.4729 25.6312 20.4761 25.6027V25.1829H20.3333V25.0483H20.3737C20.3894 25.0498 20.4052 25.0478 20.42 25.0423C20.4348 25.0369 20.4482 25.0282 20.4592 25.0169C20.4702 25.0056 20.4786 24.992 20.4836 24.977C20.4886 24.9621 20.4903 24.9462 20.4884 24.9306V24.8067H20.622L20.6235 25.0514ZM22.5007 25.5975C22.4792 25.6691 22.4347 25.7316 22.3741 25.7753C22.3134 25.819 22.2401 25.8414 22.1654 25.8391C22.0666 25.8285 21.975 25.7822 21.9078 25.709C21.8406 25.6358 21.8023 25.5407 21.8 25.4413C21.7978 25.3419 21.8317 25.2451 21.8955 25.169C21.9594 25.0928 22.0487 25.0424 22.147 25.0273C22.198 25.0261 22.2487 25.0359 22.2956 25.0562C22.3425 25.0765 22.3844 25.1068 22.4184 25.1448C22.4525 25.1829 22.4779 25.2278 22.4929 25.2767C22.5079 25.3255 22.5121 25.377 22.5053 25.4276C22.5052 25.4435 22.5042 25.4594 22.5022 25.4752H21.9391C21.9381 25.5053 21.9431 25.5353 21.954 25.5635C21.9648 25.5916 21.9812 25.6173 22.0022 25.6389C22.0232 25.6605 22.0483 25.6777 22.0761 25.6895C22.1039 25.7012 22.1337 25.7072 22.1639 25.7071C22.2111 25.7096 22.2578 25.6957 22.296 25.6677C22.3342 25.6397 22.3615 25.5994 22.3732 25.5535L22.5007 25.5975ZM22.3533 25.3544C22.354 25.3277 22.3491 25.3012 22.3389 25.2766C22.3288 25.252 22.3135 25.2297 22.2942 25.2113C22.2749 25.193 22.252 25.1788 22.2269 25.1699C22.2018 25.1609 22.1751 25.1573 22.1485 25.1593C22.0958 25.1593 22.0452 25.1795 22.007 25.2158C21.9689 25.2522 21.9462 25.3018 21.9437 25.3544H22.3533Z" fill="#EB1878"/>
</svg>
