<svg width="24" height="24" viewBox="0 0 24 24" fill="none" xmlns="http://www.w3.org/2000/svg">
<path d="M19.8467 8.99332C19.1661 8.97693 18.496 8.82118 17.878 8.53566C17.2599 8.25014 16.707 7.84094 16.2533 7.33332C16.4969 8.36936 16.3554 9.45861 15.8554 10.3981C15.3553 11.3376 14.5308 12.0632 13.5353 12.4399C12.5399 12.8165 11.4415 12.8184 10.4448 12.4452C9.44812 12.072 8.62109 11.3491 8.11782 10.4114C7.61455 9.4736 7.46937 8.38484 7.70933 7.34797C7.9493 6.31109 8.55803 5.39681 9.42212 4.77549C10.2862 4.15417 11.3467 3.86818 12.406 3.9708C13.4654 4.07343 14.4512 4.55768 15.18 5.33332C14.8855 4.26498 14.9583 3.12869 15.3867 2.10665C14.193 1.53018 12.8727 1.26604 11.5491 1.33895C10.2256 1.41186 8.94222 1.81944 7.81914 2.52353C6.69607 3.22761 5.77003 4.20518 5.12772 5.36471C4.48542 6.52423 4.14787 7.82778 4.14667 9.15332C4.14667 12.2666 5.89333 14.8733 7.17333 16.7733L7.40667 17.12C8.68019 18.9657 10.0464 20.7458 11.5 22.4533L12.0067 23.0466L12.5133 22.4533C13.9668 20.7456 15.333 18.9656 16.6067 17.12L16.84 16.7666C18.1133 14.8666 19.86 12.2666 19.86 9.15332C19.8533 9.09998 19.8467 9.04665 19.8467 8.99332Z" />
<path d="M12 10.78C13.3734 10.78 14.4867 9.66666 14.4867 8.29331C14.4867 6.91996 13.3734 5.80664 12 5.80664C10.6267 5.80664 9.51334 6.91996 9.51334 8.29331C9.51334 9.66666 10.6267 10.78 12 10.78Z"/>
<path d="M20 7.33335C21.841 7.33335 23.3333 5.84097 23.3333 4.00002C23.3333 2.15907 21.841 0.666687 20 0.666687C18.1591 0.666687 16.6667 2.15907 16.6667 4.00002C16.6667 5.84097 18.1591 7.33335 20 7.33335Z"/>
</svg>
