<svg width="20" height="18" viewBox="0 0 20 18" fill="none" xmlns="http://www.w3.org/2000/svg">
<path d="M18.9727 1.67954L12.9683 0L6.94633 1.69632L1.34622 0.107694C1.22622 0.0736467 1.09996 0.0678918 0.977356 0.090881C0.854755 0.11387 0.739156 0.164977 0.639643 0.240186C0.540129 0.315395 0.459412 0.412656 0.403835 0.524328C0.348257 0.635999 0.319333 0.759037 0.319336 0.883774V14.6218C0.319946 14.8323 0.3889 15.0369 0.515825 15.2049C0.642751 15.3728 0.820782 15.495 1.02314 15.5531L6.94496 17.233L12.9696 15.536L18.6561 17.1266C18.776 17.1601 18.902 17.1655 19.0243 17.1422C19.1466 17.1189 19.2618 17.0676 19.361 16.9923C19.4602 16.917 19.5406 16.8199 19.5959 16.7083C19.6512 16.5968 19.68 16.474 19.68 16.3495V2.61179C19.6795 2.40064 19.6101 2.19542 19.4825 2.0272C19.3549 1.85898 19.1759 1.73693 18.9727 1.67954ZM6.24854 15.6936L1.61005 14.3777V1.52417L6.24854 2.84005V15.6936ZM12.3236 14.3768L7.53925 15.7245V2.87022L12.3236 1.52255V14.3768ZM18.3893 15.7115L13.6143 14.376V1.5209L18.3893 2.85642V15.7115Z" fill="white"/>
</svg>
