<svg width="20" height="18" viewBox="0 0 20 18" fill="none" xmlns="http://www.w3.org/2000/svg">
<path d="M19.25 3.60225V0.72C19.25 0.32175 18.8925 0 18.45 0H1.55001C1.10751 0 0.750015 0.32175 0.750015 0.72V3.60225C0.332515 3.62475 1.54898e-05 3.9375 1.54898e-05 4.32V7.28325C-0.00158552 7.82785 0.120939 8.36696 0.360015 8.86725C0.467515 9.09675 0.600015 9.31275 0.750015 9.5175V17.28C0.750015 17.676 1.10751 18 1.55001 18H8.40001V14.04H11.6V18H18.45C18.8925 18 19.25 17.6783 19.25 17.28V9.5175C19.4024 9.31223 19.5329 9.09452 19.64 8.86725C19.8775 8.3655 20 7.83225 20 7.28325V4.32C20 3.9375 19.6675 3.62475 19.25 3.60225ZM17.45 16.3822H13.2V13.32C13.2 12.9218 12.8425 12.6 12.4 12.6H7.60001C7.15751 12.6 6.80001 12.9218 6.80001 13.32V16.3822H2.55001V10.9328C2.62251 10.9643 2.69751 10.9958 2.77501 11.0228C3.33251 11.2343 3.92501 11.34 4.53501 11.34C5.14501 11.34 5.73501 11.2343 6.29501 11.0228C6.64001 10.8923 6.96501 10.7257 7.26251 10.5255C7.26751 10.5233 7.27251 10.5233 7.27751 10.5255C7.57593 10.7266 7.90091 10.8936 8.24501 11.0228C8.80251 11.2343 9.39501 11.34 10.005 11.34C10.615 11.34 11.205 11.2343 11.765 11.0228C12.11 10.8923 12.435 10.7257 12.7325 10.5255C12.7375 10.5233 12.7425 10.5233 12.7475 10.5255C13.0459 10.7266 13.3709 10.8936 13.715 11.0228C14.2725 11.2343 14.865 11.34 15.475 11.34C16.085 11.34 16.675 11.2343 17.235 11.0228C17.31 10.9935 17.385 10.9643 17.46 10.9328V16.3822H17.45ZM17.45 3.6H2.55001V1.62H17.45V3.6Z"/>
</svg>
