<svg width="24" height="19" viewBox="0 0 24 19" fill="none" xmlns="http://www.w3.org/2000/svg">
<path d="M23.227 7.5214C23.227 6.9406 22.9984 6.38355 22.5914 5.97286C22.1845 5.56217 21.6325 5.33144 21.057 5.33144H17.3305V3.0266C17.3295 2.22421 17.0133 1.45497 16.4511 0.887588C15.8888 0.320211 15.1267 0.00100519 14.3316 0H10.2212C9.40466 0.00100525 8.6218 0.328833 8.04442 0.911527C7.46703 1.49422 7.14219 2.28422 7.14119 3.10827V5.33243H2.94247C2.36695 5.33243 1.81499 5.5631 1.40804 5.97379C1.00109 6.38448 0.772461 6.94152 0.772461 7.52233C0.772461 8.10314 1.00109 8.66018 1.40804 9.07087C1.81499 9.48156 2.36695 9.71229 2.94247 9.71229H3.01024L4.68516 17.6704C4.76459 18.0455 4.96873 18.3818 5.26364 18.6236C5.55856 18.8655 5.92655 18.9983 6.30655 19H17.7653C18.1508 18.9983 18.5242 18.8639 18.8238 18.6191C19.1234 18.3742 19.3312 18.0336 19.413 17.6534L21.0833 9.71606C21.6551 9.70905 22.2009 9.47459 22.6023 9.06363C23.0037 8.65267 23.2283 8.09845 23.227 7.5214ZM8.55559 3.10734C8.55608 2.66194 8.73159 2.23491 9.04367 1.91997C9.35574 1.60502 9.77894 1.4279 10.2203 1.4274H14.3306C14.7504 1.4279 15.1531 1.5964 15.45 1.89603C15.7469 2.19566 15.9138 2.60193 15.9143 3.02567V5.18804H8.55559V3.10734ZM18.0288 17.3523C18.0157 17.4132 17.9825 17.4677 17.9346 17.5069C17.8867 17.5461 17.827 17.5676 17.7653 17.5679H6.30655C6.25159 17.5679 6.19831 17.5491 6.15526 17.5146C6.11222 17.4801 6.08198 17.432 6.06946 17.378L4.47633 9.81199H19.6172L18.0288 17.3523ZM21.057 8.28396H2.94247C2.74281 8.28396 2.55134 8.20392 2.41016 8.06144C2.26898 7.91897 2.18961 7.72574 2.18961 7.52424C2.18961 7.32275 2.26898 7.12952 2.41016 6.98704C2.55134 6.84456 2.74281 6.76452 2.94247 6.76452H21.057C21.2567 6.76452 21.4481 6.84456 21.5893 6.98704C21.7305 7.12952 21.8097 7.32275 21.8097 7.52424C21.8097 7.72574 21.7305 7.91897 21.5893 8.06144C21.4481 8.20392 21.2567 8.28396 21.057 8.28396Z" fill="white"/>
</svg>
