<svg width="161" height="55" viewBox="0 0 161 55" fill="none" xmlns="http://www.w3.org/2000/svg">
<path d="M78.206 29.0623C76.6198 29.0623 76.597 29.0195 75.025 28.9339C73.3798 28.8371 71.7425 28.6332 70.1238 28.3234V3.73448C71.4551 3.51386 72.9148 3.34935 74.5029 3.24094C76.0911 3.13253 77.566 3.07737 78.9278 3.07547C80.7622 3.07547 80.8963 3.19244 82.4425 3.42352C83.8287 3.6048 85.1771 4.00641 86.4365 4.61317C87.481 5.11553 88.3789 5.87785 89.0441 6.827C89.6978 7.83248 90.0265 9.01473 89.9855 10.2134C89.9855 12.2389 88.8719 13.8365 86.6448 15.0062C88.482 15.6167 89.7345 16.4469 90.402 17.4968C91.0684 18.5589 91.4114 19.792 91.3891 21.0457C91.3891 23.7084 90.2832 25.7054 88.0712 27.0368C85.8593 28.3681 82.5709 29.0433 78.206 29.0623ZM76.4657 13.323H78.0805C80.0832 13.323 81.5163 13.0976 82.3797 12.6469C82.7864 12.4519 83.1262 12.1408 83.3562 11.7529C83.5862 11.365 83.6961 10.9176 83.6721 10.4673C83.7007 10.0137 83.5876 9.56245 83.3484 9.17603C83.1092 8.7896 82.7557 8.48713 82.3369 8.3105C81.4468 7.89398 80.0689 7.70569 78.1746 7.70569C77.5356 7.70569 76.965 7.74848 76.4629 7.79698L76.4657 13.323ZM76.4657 17.6793V24.241C76.9779 24.3053 77.4931 24.3424 78.0091 24.3522C79.2644 24.3522 81.8092 24.144 83.0045 23.6561C84.1999 23.1683 84.799 22.2639 84.799 20.9459C84.8299 20.4255 84.7028 19.908 84.4346 19.461C84.1663 19.0141 83.7693 18.6586 83.2955 18.4411C82.2951 17.9428 80.863 17.6927 78.9991 17.6908L76.4657 17.6793Z" fill="black"/>
<path d="M121.846 10.396C121.208 8.82778 120.241 7.41441 119.011 6.25073C117.798 5.12421 116.363 4.265 114.797 3.72878C113.154 3.1639 111.427 2.88127 109.69 2.89289C107.983 2.88565 106.287 3.1683 104.675 3.72878C103.111 4.26996 101.677 5.12858 100.461 6.25073C99.2181 7.41362 98.2335 8.82496 97.5712 10.3931C96.8265 12.1963 96.4622 14.134 96.5014 16.0846C96.4611 18.0364 96.8123 19.9765 97.5341 21.7904C98.1689 23.3557 99.1365 24.7643 100.37 25.9185C101.585 27.0365 103.02 27.8887 104.584 28.4204C106.226 28.986 107.953 29.2696 109.69 29.2592C111.459 29.2726 113.217 28.9891 114.891 28.4204C116.454 27.8959 117.886 27.0417 119.09 25.9156C120.303 24.7465 121.248 23.3297 121.863 21.7618C122.571 19.9503 122.915 18.0174 122.876 16.0732C122.912 14.1312 122.562 12.2015 121.846 10.396ZM112.469 23.2539C110.68 23.9802 108.678 23.9802 106.889 23.2539C106.095 22.9039 105.394 22.3746 104.84 21.7076C104.255 20.9922 103.815 20.1695 103.545 19.2855C102.94 17.2012 102.94 14.988 103.545 12.9036C103.813 12.0135 104.253 11.1846 104.84 10.4644C105.398 9.79556 106.099 9.26035 106.892 8.8982C107.771 8.50664 108.725 8.31191 109.687 8.32762C110.642 8.31325 111.59 8.49886 112.469 8.87252C113.268 9.22115 113.975 9.75046 114.534 10.4188C115.121 11.1394 115.562 11.9681 115.83 12.858C116.145 13.9012 116.297 14.9865 116.283 16.076C116.299 17.1601 116.146 18.2399 115.83 19.277C115.56 20.1609 115.12 20.9836 114.534 21.6991C113.977 22.3713 113.269 22.9038 112.469 23.2539Z" fill="black"/>
<path d="M160.999 3.36931C161.009 3.85732 160.92 4.34225 160.74 4.79575C160.58 5.1927 160.342 5.55358 160.041 5.85702C159.75 6.144 159.405 6.36915 159.025 6.51889C158.247 6.82308 157.384 6.82308 156.606 6.51889C156.227 6.36909 155.883 6.14392 155.593 5.85702C155.291 5.55433 155.053 5.19325 154.894 4.79575C154.544 3.87697 154.544 2.86165 154.894 1.94287C155.049 1.54862 155.282 1.18963 155.579 0.887311C155.868 0.600411 156.213 0.375241 156.592 0.225444C157.37 -0.0751479 158.233 -0.0751479 159.011 0.225444C159.391 0.375183 159.736 0.600337 160.027 0.887311C160.328 1.19075 160.566 1.55163 160.726 1.94858C160.91 2.39935 161.003 2.88227 160.999 3.36931ZM160.32 3.36931C160.325 2.98669 160.262 2.60629 160.135 2.24528C160.018 1.93 159.843 1.63962 159.619 1.38942C159.399 1.14359 159.128 0.948834 158.826 0.81884C158.178 0.5565 157.453 0.5565 156.806 0.81884C156.504 0.94887 156.234 1.14365 156.015 1.38942C155.791 1.63962 155.616 1.93 155.499 2.24528C155.252 2.97328 155.252 3.7625 155.499 4.49049C155.614 4.81082 155.789 5.10618 156.015 5.36062C156.235 5.60123 156.505 5.79106 156.806 5.91693C157.453 6.17927 158.178 6.17927 158.826 5.91693C159.127 5.7911 159.398 5.60129 159.619 5.36062C159.845 5.10618 160.02 4.81082 160.135 4.49049C160.258 4.12972 160.317 3.75031 160.309 3.36931H160.32ZM158.717 5.21513C158.576 4.93878 158.416 4.67279 158.238 4.41917C158.061 4.16812 157.907 3.96842 157.779 3.81722H157.154V5.21513H156.495V1.60909C156.67 1.57005 156.847 1.54241 157.025 1.52635C157.195 1.50775 157.365 1.49823 157.536 1.49783C157.962 1.46711 158.386 1.56661 158.754 1.78311C158.895 1.8864 159.007 2.02343 159.08 2.18151C159.153 2.3396 159.185 2.51362 159.174 2.68748C159.178 2.90109 159.115 3.11067 158.994 3.28658C158.862 3.46529 158.682 3.60281 158.475 3.68313C158.537 3.7573 158.609 3.8486 158.691 3.96842C158.774 4.08824 158.854 4.20235 158.942 4.33929C159.031 4.47623 159.117 4.62458 159.202 4.76722C159.288 4.90987 159.368 5.05251 159.436 5.21513H158.717ZM157.154 3.27802H157.507C157.746 3.28627 157.984 3.24649 158.206 3.16105C158.299 3.12275 158.377 3.05534 158.429 2.96893C158.48 2.88252 158.502 2.78177 158.492 2.68177C158.5 2.58461 158.479 2.48724 158.432 2.40194C158.384 2.31664 158.313 2.24724 158.226 2.20249C158.027 2.10898 157.808 2.06309 157.587 2.0684H157.373C157.299 2.0684 157.228 2.0684 157.159 2.0684L157.154 3.27802Z" fill="black"/>
<path d="M56.005 3.34363V19.0858L46.3537 3.34648H45.1184L45.1156 3.34363H39.7778V28.9767H46.291L46.3452 14.0562L55.4943 28.9767H62.0702V3.34363H56.005Z" fill="black"/>
<path d="M151.679 28.8198H144.259L126.522 3.31509H133.943L151.679 28.8198Z" fill="black"/>
<path d="M126.522 28.8198H133.943L151.679 3.31509H144.259L126.522 28.8198Z" fill="black"/>
<path d="M28.5972 10.3732V3.44922H22.1469V17.9105C22.1469 19.9075 21.8017 21.2769 21.1084 22.0671C20.627 22.5899 20.0359 22.9997 19.3774 23.267C18.7189 23.5343 18.0094 23.6526 17.2998 23.6134C16.5926 23.6509 15.8857 23.5317 15.2298 23.2644C14.5739 22.9972 13.9851 22.5883 13.5055 22.0671C12.8123 21.2597 12.4642 19.8932 12.4642 17.9105V3.44922H5.99104V10.3732H0V15.9134H5.99104V18.2243C5.99104 21.7162 6.8469 24.3038 8.53866 26.0326C10.5128 28.0125 13.4513 28.9768 17.2884 28.9768C21.1256 28.9768 24.0269 28.0068 26.0268 26.0269C27.7385 24.338 28.6115 21.7105 28.6115 18.2214V15.9134H34.1689L34.1489 10.3732H28.5972Z" fill="black"/>
<path d="M139.118 54.259V52.8582H133.175V48.7871H138.085V47.4149H133.175V43.9258H138.695V42.5222H131.532V54.259H139.118ZM122.611 52.8182C122.201 52.6908 121.804 52.5266 121.424 52.3276L120.933 53.6827C121.056 53.7511 121.219 53.8339 121.45 53.928C121.705 54.0379 121.968 54.1285 122.237 54.199C122.58 54.2929 122.927 54.3663 123.278 54.4187C123.701 54.4839 124.129 54.5154 124.557 54.5129C125.922 54.5129 126.981 54.2361 127.735 53.6827C128.104 53.4114 128.399 53.0527 128.595 52.639C128.792 52.2252 128.882 51.7692 128.859 51.3119C128.874 50.824 128.788 50.3382 128.605 49.8855C128.44 49.5021 128.195 49.1587 127.886 48.8784C127.556 48.5839 127.185 48.3388 126.785 48.1509C126.362 47.9455 125.895 47.743 125.387 47.5404C125.024 47.4035 124.696 47.2551 124.397 47.1325C124.12 47.0103 123.856 46.8602 123.609 46.6846C123.396 46.5341 123.217 46.3396 123.084 46.114C122.952 45.8701 122.888 45.5952 122.899 45.318C122.892 45.0614 122.953 44.8073 123.076 44.582C123.193 44.3738 123.358 44.1967 123.558 44.0656C123.775 43.9233 124.016 43.82 124.268 43.7604C124.557 43.6898 124.853 43.6553 125.15 43.6577C125.702 43.6483 126.253 43.7204 126.785 43.8716C127.154 43.9711 127.509 44.1157 127.843 44.3024L128.368 42.9644C127.971 42.7324 127.539 42.5639 127.09 42.4652C126.456 42.3058 125.804 42.2291 125.15 42.2369C123.919 42.2369 122.954 42.5222 122.254 43.0928C121.764 43.5525 121.425 44.1501 121.281 44.8066C121.138 45.4631 121.196 46.1477 121.45 46.7702C121.609 47.1137 121.836 47.4214 122.117 47.6745C122.418 47.9415 122.755 48.1644 123.119 48.3364C123.514 48.5278 123.921 48.6945 124.337 48.8356C124.711 48.9726 125.061 49.1067 125.395 49.2436C125.711 49.3672 126.01 49.5291 126.285 49.7257C126.535 49.9007 126.745 50.125 126.904 50.3847C127.063 50.6664 127.142 50.9859 127.133 51.3091C127.133 52.4845 126.277 53.0712 124.565 53.0693C123.906 53.086 123.249 52.9944 122.619 52.7983L122.611 52.8182ZM114.614 43.923C114.976 43.9858 115.322 44.1134 115.638 44.2996C115.923 44.4672 116.159 44.7061 116.323 44.9928C116.503 45.3314 116.59 45.7111 116.577 46.094C116.594 46.4901 116.507 46.8838 116.323 47.2352C116.153 47.5232 115.903 47.756 115.604 47.9056C115.245 48.077 114.859 48.1851 114.463 48.2251C113.957 48.2852 113.449 48.3138 112.94 48.3107H111.77V43.8945C112.144 43.8602 112.677 43.8431 113.379 43.8431C113.796 43.8417 114.212 43.8751 114.623 43.943L114.614 43.923ZM117.69 48.111C118.109 47.5312 118.327 46.8295 118.309 46.114C118.309 44.8834 117.876 43.9582 117.011 43.3381C116.145 42.7181 114.889 42.4072 113.242 42.4052C112.768 42.4052 112.246 42.4252 111.676 42.4652C111.154 42.4969 110.636 42.5732 110.127 42.6934V54.2618H111.77V49.6687H113.71C113.861 49.6687 114.012 49.6687 114.158 49.6516C114.373 49.9121 114.612 50.2174 114.877 50.5673C115.141 50.9173 115.409 51.2929 115.681 51.6942C115.953 52.0936 116.221 52.5139 116.486 52.9552C116.751 53.3945 116.996 53.831 117.225 54.259H119.019C118.801 53.7766 118.555 53.307 118.283 52.8525C117.996 52.3675 117.705 51.9015 117.41 51.4546C117.115 51.0076 116.83 50.6016 116.554 50.2364C116.269 49.8684 116.049 49.5745 115.869 49.3463C116.589 49.1317 117.225 48.7003 117.69 48.111ZM107.545 54.259V52.8582H101.582V48.7871H106.492V47.4149H101.582V43.9258H107.103V42.5222H99.9476V54.259H107.545ZM95.8309 42.5222C95.2318 44.3062 94.6384 46.0246 94.0507 47.6774C93.463 49.3301 92.8591 50.8745 92.2391 52.3104C91.6172 50.8669 91.0133 49.3197 90.4275 47.6688C89.8418 46.0179 89.2426 44.3062 88.6302 42.5336H86.8187C87.2352 43.7756 87.6422 44.9243 88.0397 45.9799C88.4372 47.0355 88.8233 48.0378 89.198 48.9868C89.5783 49.9378 89.9511 50.8441 90.3163 51.7056C90.6814 52.5672 91.0571 53.4231 91.4432 54.2732H92.9837C93.3641 53.425 93.7445 52.5691 94.1249 51.7056C94.5053 50.8422 94.8752 49.9359 95.2346 48.9868C95.615 48.0359 95.9954 47.0336 96.3758 45.9799C96.7562 44.9262 97.1651 43.7775 97.6025 42.5336L95.8309 42.5222ZM82.8018 54.259H84.4451V42.5222H82.8018V54.259ZM79.23 54.259V42.5222H77.621V51.2092C77.2587 50.613 76.8165 49.9283 76.2915 49.1609C75.7666 48.3934 75.2074 47.6118 74.614 46.8158C74.0207 46.0198 73.4215 45.2467 72.8167 44.4936C72.2119 43.7404 71.6471 43.0871 71.105 42.5222H69.8012V54.259H71.4188V45.0955C71.7326 45.4588 72.0769 45.8762 72.4516 46.3479C72.8262 46.8196 73.2066 47.3255 73.5927 47.8657C73.9864 48.402 74.3858 48.9583 74.7852 49.5346C75.1846 50.1109 75.5726 50.6757 75.9463 51.2463C76.3201 51.8169 76.6653 52.3447 76.9876 52.8639C77.31 53.3831 77.5953 53.8539 77.8435 54.2704L79.23 54.259ZM63.8245 54.1562C64.3539 53.9403 64.8278 53.6078 65.211 53.1834C65.5856 52.7597 65.8631 52.2593 66.024 51.717C66.2043 51.1244 66.2929 50.5077 66.2865 49.8883V42.5222H64.6461V49.7029C64.6567 50.2155 64.5874 50.7266 64.4407 51.2178C64.3291 51.6025 64.1343 51.958 63.8701 52.2591C63.6264 52.5273 63.3222 52.7337 62.9829 52.861C62.6174 52.9946 62.2307 53.0603 61.8417 53.055C61.4664 53.071 61.0919 53.0085 60.7421 52.8715C60.3923 52.7344 60.075 52.5258 59.8105 52.2591C59.2884 51.7285 59.0288 50.8783 59.0288 49.6915V42.5222H57.3855V49.8883C57.3801 50.5079 57.4696 51.1246 57.6508 51.717C57.811 52.2577 58.0854 52.7578 58.4553 53.1834C58.8357 53.6109 59.3104 53.944 59.8419 54.1562C60.4773 54.4063 61.1561 54.5275 61.8389 54.5129C62.5217 54.5292 63.2009 54.4079 63.8359 54.1562H63.8245ZM49.7855 54.259V52.8582H43.8229V48.7871H48.7356V47.4149H43.8229V43.9258H49.3433V42.5222H42.1797V54.259H49.7855ZM36.9789 47.4121H31.2218V42.5222H29.5785V54.259H31.2218V48.8385H36.9618V54.259H38.6107V42.5222H36.9675L36.9789 47.4121ZM18.1499 42.5194V43.9458H21.8415V54.2618H23.4905V43.943H27.1821V42.5165L18.1499 42.5194Z" fill="black"/>
</svg>
