<svg width="46" height="46" viewBox="0 0 46 46" fill="none" xmlns="http://www.w3.org/2000/svg">
<path d="M44.6559 22.7944C44.6559 35.0211 34.7448 44.9327 22.5188 44.9327C10.2928 44.9327 0.381674 35.0211 0.381674 22.7944C0.381674 10.5677 10.2928 0.656089 22.5188 0.656089C34.7448 0.656089 44.6559 10.5677 44.6559 22.7944Z" fill="white" stroke="#4DC01D" stroke-width="0.763349"/>
<rect x="21.9464" y="27.2633" width="1.14502" height="2.71133" fill="#4DC01D" stroke="#4DC01D" stroke-width="0.381674"/>
<rect x="21.9464" y="14.8385" width="1.14502" height="2.71133" fill="#4DC01D" stroke="#4DC01D" stroke-width="0.381674"/>
<rect x="17.748" y="21.8277" width="1.15823" height="2.67172" transform="rotate(90 17.748 21.8277)" fill="#4DC01D" stroke="#4DC01D" stroke-width="0.381674"/>
<rect x="30.725" y="21.8277" width="1.15823" height="2.67172" transform="rotate(90 30.725 21.8277)" fill="#4DC01D" stroke="#4DC01D" stroke-width="0.381674"/>
<path d="M27.6717 22.4062C27.6717 25.3159 25.3556 27.6578 22.5191 27.6578C19.6826 27.6578 17.3665 25.3159 17.3665 22.4062C17.3665 19.4965 19.6826 17.1545 22.5191 17.1545C25.3556 17.1545 27.6717 19.4965 27.6717 22.4062Z" stroke="#4DC01D" stroke-width="1.14502"/>
<ellipse cx="22.5189" cy="22.4064" rx="2.67172" ry="2.71793" fill="#4DC01D"/>
</svg>
